<svg 
 xmlns="http://www.w3.org/2000/svg"
 xmlns:xlink="http://www.w3.org/1999/xlink"
 width="776px" height="818px">
<path fill-rule="evenodd"  fill="rgb(0, 186, 255)"
 d="M22.211,817.716 L148.750,817.716 C171.757,817.716 184.410,803.912 190.162,790.108 L231.575,698.080 C231.575,698.080 387.013,351.997 387.000,351.1000 C388.010,351.1000 388.005,351.1000 388.000,351.1000 C387.644,352.003 544.469,698.080 544.469,698.080 L585.881,788.957 C596.235,810.814 605.437,817.716 626.144,817.716 L753.832,817.716 C771.087,817.716 780.290,802.761 773.388,787.807 L413.329,13.623 C409.878,6.721 401.826,0.970 393.773,0.970 L382.270,0.970 C374.218,0.970 366.165,6.721 362.714,13.623 L2.656,787.807 C-4.247,802.761 4.956,817.716 22.211,817.716 Z"/>
</svg>